<svg width="159" height="44" viewBox="0 0 159 44" fill="none" xmlns="http://www.w3.org/2000/svg">
<path d="M0.5 4C0.5 2.067 2.067 0.5 4 0.5H39.5V43.5H4C2.067 43.5 0.5 41.933 0.5 40V4Z" stroke="black" stroke-opacity="0.5"/>
<path d="M28 22H12" stroke="black" stroke-width="1.5" stroke-linecap="round"/>
<mask id="path-4-inside-1_287_5109" fill="white">
<path d="M39 0H119V44H39V0Z"/>
</mask>
<path d="M39 1H119V-1H39V1ZM119 43H39V45H119V43Z" fill="black" fill-opacity="0.5" mask="url(#path-4-inside-1_287_5109)"/>
<path d="M75.46 25.9C76.74 24.7933 77.7467 23.8867 78.48 23.18C79.2267 22.46 79.8467 21.7133 80.34 20.94C80.8333 20.1667 81.08 19.3933 81.08 18.62C81.08 17.82 80.8867 17.1933 80.5 16.74C80.1267 16.2867 79.5333 16.06 78.72 16.06C77.9333 16.06 77.32 16.3133 76.88 16.82C76.4533 17.3133 76.2267 17.98 76.2 18.82H74C74.04 17.3 74.4933 16.14 75.36 15.34C76.24 14.5267 77.3533 14.12 78.7 14.12C80.1533 14.12 81.2867 14.52 82.1 15.32C82.9267 16.12 83.34 17.1867 83.34 18.52C83.34 19.48 83.0933 20.4067 82.6 21.3C82.12 22.18 81.54 22.9733 80.86 23.68C80.1933 24.3733 79.34 25.18 78.3 26.1L77.4 26.9H83.74V28.8H74.02V27.14L75.46 25.9Z" fill="black"/>
<path d="M118 0H155C157.209 0 159 1.79086 159 4V40C159 42.2091 157.209 44 155 44H118V0Z" fill="#DB4444"/>
<path d="M139 30V22M139 22V14M139 22H147M139 22H131" stroke="white" stroke-width="1.5" stroke-linecap="round"/>
</svg>
